<svg width="292" height="56" viewBox="0 0 292 56" fill="none" xmlns="http://www.w3.org/2000/svg" role="img" aria-labelledby="title desc">
  <title id="title">MakoTrends</title>
  <desc id="desc">A compact mako shark and market pulse logo for MakoTrends.</desc>
  <defs>
    <linearGradient id="makoBody" x1="21" y1="31" x2="122" y2="24" gradientUnits="userSpaceOnUse">
      <stop stop-color="#006F75"/>
      <stop offset=".52" stop-color="#18C7C1"/>
      <stop offset="1" stop-color="#009C95"/>
    </linearGradient>
    <linearGradient id="makoGold" x1="38" y1="43" x2="98" y2="18" gradientUnits="userSpaceOnUse">
      <stop stop-color="#A99658"/>
      <stop offset="1" stop-color="#E1CB86"/>
    </linearGradient>
  </defs>
  <path d="M8 31h15l4-9 8 24 8-31 8 22 5-11h14" stroke="#18C7C1" stroke-width="3" stroke-linecap="round" stroke-linejoin="round"/>
  <path d="M47 30.6c13.8-7.6 27.7-11.3 41.6-11.1l21.4.3c9.4.1 17.5 4.2 24.4 12.2-6.9 8.2-15.1 12.4-24.4 12.6l-22.9.4C73 45.2 59.6 40.4 47 30.6Z" fill="url(#makoBody)" stroke="#07111F" stroke-width="1.2" stroke-linejoin="round"/>
  <path d="M67.7 27.7 53.8 13.6c-.8-.8-.3-2.2.8-2.3l13.7 3.7c.5.1.9.4 1.2.9l8.1 12.2-9.9-.4Z" fill="#008D8B" stroke="#07111F" stroke-width="1"/>
  <path d="M69.6 39.4 56.6 50.1c-.9.7-.5 2.1.7 2.2l13-1.8c.5-.1.9-.3 1.2-.7l9.2-10.8-11.1.4Z" fill="#008D8B" stroke="#07111F" stroke-width="1"/>
  <path d="M38.5 39.4 13.8 45.8c-1.3.3-2.2-1.2-1.2-2.1l18.9-16.6c1.5-1.3 3.7-.9 4.7.7l5.3 8.3c.8 1.3.1 2.9-1.4 3.3h-1.6Z" fill="#006F75" stroke="#07111F" stroke-width="1"/>
  <path d="M65.8 39.8c19.8-2.3 36.4-5 49.8-8.2-3.6 5.2-9 8.3-16.1 9.2l-27.7 3.6c-3.4.5-5.4-1.1-6-4.6Z" fill="#C8B273"/>
  <path d="M34.5 41.2 74.1 34l-25.8 15.4c-2 1.2-4.5.6-5.8-1.3l-8-6.9Z" fill="url(#makoGold)" opacity=".95"/>
  <path d="M112 30.7c6.6-.1 12.3.3 17.2 1.1-4.8 2.3-10.1 3.7-16.1 4.1l-10.2.7c5.1-1.8 8.1-3.8 9.1-5.9Z" fill="#006A70" opacity=".9"/>
  <path d="M91 42.6 88.2 31l6.1 10.8-3.3.8Z" fill="#07111F" opacity=".65"/>
  <path d="M98.4 42.2 95.1 30.6l6.9 10.6-3.6 1Z" fill="#07111F" opacity=".65"/>
  <path d="M105.8 41.2 102.8 30l6.2 10.2-3.2 1Z" fill="#07111F" opacity=".65"/>
  <circle cx="118.9" cy="29.6" r="3.4" fill="#07111F"/>
  <circle cx="120.2" cy="28.4" r="1" fill="#F5F3EA"/>
  <path d="M100.5 13.5 114.2 9.8l-3.8 13.6-3.5-4.1-11.8 9.6-4.4-5.3 11.9-9.8-2.1-2.3Z" fill="#C8B273"/>
  <text x="147" y="35.5" font-family="Inter, Segoe UI, Arial, sans-serif" font-size="24" font-weight="850" letter-spacing="0" fill="#F5F3EA">Mako</text>
  <text x="204" y="35.5" font-family="Inter, Segoe UI, Arial, sans-serif" font-size="24" font-weight="850" letter-spacing="0" fill="#C8B273">Trends</text>
</svg>
